<svg xmlns="http://www.w3.org/2000/svg" xmlns:xlink="http://www.w3.org/1999/xlink" width="100%" height="100%" version="1.1" viewBox="0 0 512 512" xml:space="preserve" style="fill-rule:evenodd;clip-rule:evenodd;stroke-linejoin:round;stroke-miterlimit:2"><circle cx="256" cy="256" r="256" style="fill:#f43f5d"/><g><g><path d="M1069.77,309.694L1127.48,687.335L1221.74,672.748L1265.7,293.769L1069.77,309.694Z" style="fill:#fff" transform="matrix(1.30586,0,0,1.64622,-1248.86,-1019.25) matrix(0.287106,0,0,0.287106,801.332,655.129)"/></g><g><path d="M1089.58,309.973L1051.32,696.943L1125.28,711.661L1265.12,295.158L1089.58,309.973Z" style="fill:#fff" transform="matrix(1.30586,0,0,1.64622,-1248.86,-1019.25) matrix(0.287106,0,0,0.287106,857.975,648.965)"/></g><g><path d="M608.665,549.114L614.129,584.015L407.666,603.932L364.428,563.225L608.665,549.114Z" style="fill:#fff" transform="matrix(1.30586,0,0,1.64622,-1248.86,-1019.25) matrix(0.792712,0,0,0.792712,764.533,260.727)"/></g></g></svg>